<?xml version="1.0" encoding="UTF-8" standalone="no"?>
<!-- Created with Inkscape (http://www.inkscape.org/) -->

<svg
   width="43.293926mm"
   height="60.110157mm"
   viewBox="0 0 43.293926 60.110157"
   version="1.1"
   id="svg1"
   xml:space="preserve"
   xmlns="http://www.w3.org/2000/svg"
   xmlns:svg="http://www.w3.org/2000/svg"><defs
     id="defs1" /><g
     id="layer1"
     transform="matrix(0.85,0,0,0.85,-67.514646,-76.709702)"><path
       style="fill:#000000"
       d="m 88.785156,160.88347 c -1.179221,-0.15172 -2.145519,-0.60017 -3.041164,-1.41137 -1.079275,-0.97752 -2.59506,-2.02494 -4.059509,-2.80516 -1.569213,-0.83603 -2.328625,-2.10591 -2.022497,-3.382 0.175733,-0.73253 0.526361,-1.14546 1.73305,-2.04094 0.608243,-0.45138 1.265115,-0.99464 1.459716,-1.20724 0.653665,-0.71413 1.033903,-1.67421 1.340112,-3.38371 0.318962,-1.7807 0.601348,-2.54399 1.144839,-3.0945 l 0.271656,-0.27517 -0.49688,-0.006 c -0.273283,-0.003 -0.569311,-0.0344 -0.657839,-0.0691 -0.139797,-0.0548 -0.123701,-0.0786 0.122416,-0.18052 0.419279,-0.17367 1.322164,-1.06396 2.542536,-2.50705 1.322871,-1.56431 2.009189,-2.14805 2.525508,-2.14805 0.196092,0 0.214861,-0.0381 1.249844,-2.54 1.396746,-3.37634 2.58521,-6.75017 3.329009,-9.45044 0.340083,-1.23464 0.863234,-3.69166 0.978258,-4.59447 l 0.05809,-0.45592 -0.376002,0.39242 c -0.206801,0.21583 -0.414033,0.39241 -0.460516,0.39241 -0.04898,0 -0.002,-0.36487 0.111626,-0.86783 0.287439,-1.27179 0.463874,-2.57718 0.434938,-3.21797 l -0.02541,-0.56272 -0.668709,0.33643 c -0.367789,0.18504 -0.925189,0.50694 -1.238665,0.71534 l -0.569957,0.37891 0.04161,0.91042 c 0.07693,1.68327 -0.167599,2.24589 -2.509369,5.77359 -2.635383,3.97001 -3.202508,4.92949 -3.700955,6.26142 -0.16742,0.44738 -0.354074,0.90866 -0.414786,1.02508 -0.168342,0.3228 -0.549293,0.64974 -0.977942,0.83928 -0.498988,0.22064 -1.796145,0.42995 -2.667311,0.43038 -1.288106,6.4e-4 -1.809523,-0.35545 -2.416214,-1.65009 -0.521303,-1.11243 -0.527259,-1.89545 -0.01901,-2.49946 0.214051,-0.25439 1.049278,-0.92085 1.367379,-1.0911 0.21702,-0.11614 0.581086,-0.12081 0.650596,-0.008 0.08684,0.1405 0.447963,0.0965 1.095808,-0.13347 l 0.614457,-0.21814 0.09627,-1.1577 c 0.05295,-0.63673 0.174005,-2.22449 0.269016,-3.52836 0.317504,-4.35721 0.561775,-5.7771 1.226029,-7.12659 0.451636,-0.91753 1.286714,-1.85976 2.361186,-2.66415 l 0.687235,-0.51449 -0.362286,0.0593 c -0.357771,0.0586 -1.204048,-0.0833 -1.204048,-0.20184 0,-0.0326 0.128603,-0.10572 0.285784,-0.16255 0.852466,-0.30826 2.319599,-1.56979 2.971805,-2.55535 0.200306,-0.30268 0.693984,-1.21051 1.097064,-2.0174 1.38721,-2.77694 2.339505,-4.33441 3.139174,-5.13408 l 0.446399,-0.44639 -0.357908,0.10771 c -0.411813,0.12394 -1.486318,0.25301 -1.486318,0.17853 0,-0.0275 0.120146,-0.11215 0.26699,-0.18808 0.146844,-0.0759 0.70696,-0.576 1.244702,-1.11126 1.309759,-1.3037 1.91768,-1.71377 3.174215,-2.141183 l 0.66424,-0.22594 -0.50662,-0.18472 c -0.800564,-0.2919 -0.821024,-0.40769 -0.08401,-0.47544 1.447535,-0.133059 2.575192,-0.442599 3.664812,-1.005979 1.41338,-0.73077 2.07699,-1.42484 3.61592,-3.7819 1.69795,-2.60062 2.60968,-3.41924 4.30042,-3.86124 0.77788,-0.20335 2.33351,-0.2041 3.00566,-0.001 1.17406,0.35399 2.14262,1.10857 2.64256,2.05876 0.14249,0.27081 0.40077,0.85 0.57397,1.28708 0.1732,0.43708 0.59461,1.33243 0.93647,1.98967 0.85482,1.64339 0.93793,2.1067 0.47341,2.63932 -0.24448,0.28033 -0.3486,0.61609 -0.2629,0.847779 0.0354,0.0956 0.25356,0.4239 0.48484,0.72946 0.44246,0.584563 0.58437,1.010123 0.4525,1.356973 -0.0916,0.24085 -0.55821,0.65911 -0.73534,0.65911 -0.14202,0 -0.16002,0.13492 -0.0288,0.21601 0.17116,0.10578 0.6572,0.93973 0.79726,1.36796 0.20761,0.63471 0.0754,1.03817 -0.53667,1.63716 l -0.47967,0.46946 0.0714,0.44842 c 0.0956,0.60076 -0.0428,1.33816 -0.38178,2.03334 -0.2437,0.49983 -0.2757,0.53413 -0.30392,0.32581 -0.0534,-0.39423 -0.18963,-0.25739 -0.18963,0.1905 0,0.23284 -0.0377,0.42334 -0.0838,0.42334 -0.39041,0 -1.61376,-0.69758 -2.24703,-1.2813 -0.2082,-0.19192 -0.37854,-0.3234 -0.37854,-0.29219 0,0.0312 0.15565,0.26292 0.3459,0.5149 1.14799,1.5205 2.28804,4.16909 2.62336,6.09463 0.091,0.52247 0.10706,0.54814 0.40425,0.64542 0.69588,0.22781 2.1324,0.83737 2.45852,1.04324 0.42604,0.26894 0.44009,0.20264 0.1422,-0.67104 -0.11115,-0.32596 -0.19161,-0.60329 -0.17881,-0.61629 0.0128,-0.013 0.26178,0.15567 0.55328,0.37479 0.6989,0.52538 1.4226,1.41516 1.91688,2.3568 0.29871,0.56905 0.60375,0.97889 1.19837,1.61004 1.62575,1.72564 3.81142,4.54898 5.06937,6.54835 0.72334,1.14968 0.77799,1.2092 1.62324,1.76786 1.35452,0.89526 1.52701,1.45182 1.18794,3.83298 -0.17377,1.22034 -0.60582,1.92541 -1.37665,2.24657 -0.38005,0.15835 -1.46283,0.37879 -1.85712,0.3781 -0.89396,-0.002 -1.54195,-0.54979 -1.98238,-1.67711 -0.28723,-0.7352 -0.339,-1.06688 -0.1817,-1.16409 0.23903,-0.14773 0.31735,-0.57838 0.22255,-1.2236 l -0.0931,-0.63373 -2.36022,-1.55675 c -1.29813,-0.85622 -2.61507,-1.68376 -2.92654,-1.83898 -0.34763,-0.17325 -1.00768,-0.38186 -1.70931,-0.54023 -1.9067,-0.43038 -2.16176,-0.53786 -2.79687,-1.1786 -0.30426,-0.30696 -0.83463,-0.97721 -1.17861,-1.48944 -0.35411,-0.52733 -0.98263,-1.29861 -1.4489,-1.778 -0.56043,-0.57621 -1.26578,-1.46923 -2.20806,-2.7956 -0.76152,-1.07191 -1.45415,-2.04346 -1.53919,-2.159 l -0.15462,-0.21007 0.12088,0.21167 c 0.43999,0.77044 1.59859,2.60589 2.17336,3.443 0.41488,0.60425 0.68203,1.0779 0.68207,1.20931 4e-5,0.11881 -0.11999,1.05875 -0.26674,2.08875 l -0.26682,1.87272 0.43219,0.62494 c 0.49178,0.71112 1.37369,1.78182 2.30263,2.79557 l 0.635,0.69297 -0.51581,-0.0467 -0.51582,-0.0467 0.802,0.77393 c 1.32455,1.27818 2.79854,3.1716 3.40631,4.37557 0.13878,0.27492 0.25233,0.51717 0.25233,0.53832 0,0.0212 -0.23582,-0.054 -0.52405,-0.16692 -0.28824,-0.11296 -0.55462,-0.20538 -0.59196,-0.20538 -0.0373,0 0.0977,0.21908 0.30015,0.48684 0.81103,1.07279 2.08371,3.42974 2.52589,4.67783 l 0.19497,0.55033 v 5.64232 c 0,5.5207 0.004,5.64654 0.16933,5.83786 0.31106,0.35918 0.65632,0.62272 1.60166,1.22252 1.08748,0.68998 1.66544,1.10871 2.52328,1.82811 0.33902,0.28431 0.69888,0.54849 0.79969,0.58706 0.27245,0.10424 0.70044,-0.0439 1.84144,-0.63749 1.7145,-0.89191 2.3534,-0.91031 3.15189,-0.0908 0.74231,0.76188 0.6972,1.25623 -0.16823,1.84393 -0.28179,0.19136 -0.85046,0.66425 -1.26372,1.05086 -0.90006,0.84203 -1.77341,1.32024 -2.65691,1.45481 -0.31887,0.0486 -1.18936,0.15055 -1.93443,0.22663 -2.54142,0.2595 -5.02928,0.65769 -6.68867,1.07053 -1.39145,0.34618 -2.25923,0.4019 -2.76623,0.17763 -0.67999,-0.30079 -1.06136,-1.01953 -1.258,-2.37089 -0.0961,-0.66004 -0.0714,-2.2768 0.0514,-3.36512 0.0384,-0.34076 -0.005,-0.57196 -0.22124,-1.18533 -0.39418,-1.11664 -1.15031,-2.75816 -1.63308,-3.54532 -1.04616,-1.7058 -1.28869,-2.35305 -1.22303,-3.264 0.0443,-0.61401 0.31301,-1.23991 0.74237,-1.72892 l 0.25417,-0.28948 -0.31752,0.11331 c -0.34049,0.12151 -0.98299,0.14694 -1.23179,0.0487 -0.13801,-0.0545 -0.13098,-0.0797 0.075,-0.26921 0.33453,-0.30781 0.77994,-1.03279 1.00996,-1.64388 l 0.20201,-0.5367 -0.52501,-0.34153 c -1.29492,-0.84237 -2.26257,-1.85081 -2.97421,-3.09957 l -0.36462,-0.63983 -0.14039,0.36761 c -0.11619,0.30423 -0.55946,0.87098 -0.55946,0.7153 0,-0.21454 -0.29656,-1.67027 -0.43647,-2.14252 -0.16689,-0.56333 -0.52081,-1.3254 -0.78641,-1.69333 -0.11134,-0.15425 -0.0921,-0.2146 0.2158,-0.67734 0.40677,-0.61129 1.10574,-1.83455 1.06916,-1.87113 -0.0144,-0.0144 -0.20381,0.27027 -0.42094,0.63259 -0.60222,1.00491 -1.19274,1.79347 -2.39548,3.19887 -0.6039,0.70565 -1.28796,1.5248 -1.52014,1.82034 -1.3356,1.70004 -2.774212,3.62401 -3.345625,4.47433 -0.762843,1.1352 -1.238551,1.63525 -2.066898,2.17266 -1.573969,1.02114 -2.38245,1.69122 -3.782887,3.13528 -1.074852,1.10834 -1.811971,2.0379 -2.135543,2.69306 -0.173833,0.35198 -0.219022,0.60259 -0.268085,1.48676 -0.07864,1.41721 -0.01898,1.76668 0.389948,2.28401 0.491538,0.62184 1.531204,1.47401 1.952218,1.60015 0.199413,0.0597 0.761189,0.14324 1.248392,0.18555 0.487203,0.0423 1.028685,0.11972 1.203295,0.17203 0.453633,0.13591 0.866344,0.5077 1.334418,1.2021 0.604638,0.897 0.797301,1.31699 0.798099,1.73982 5.88e-4,0.31114 -0.04306,0.41218 -0.262894,0.60861 -0.26361,0.23553 -0.737058,0.41395 -1.100843,0.41483 -0.311426,7.7e-4 -0.71022,-0.20207 -1.249625,-0.63557 -0.277469,-0.223 -0.552473,-0.44278 -0.611121,-0.4884 -0.05995,-0.0466 -0.03297,0.0794 0.06164,0.28792 0.09255,0.20397 0.169109,0.54845 0.170132,0.7655 0.0016,0.33399 -0.03642,0.42685 -0.247189,0.6042 -0.335839,0.28259 -0.810628,0.37498 -2.462552,0.47921 -1.576841,0.0995 -1.995891,0.0985 -2.815177,-0.007 z"
       id="path1" /></g></svg>
