<svg xmlns="http://www.w3.org/2000/svg" xmlns:xlink="http://www.w3.org/1999/xlink" version="1.1" x="0px" y="0px" viewBox="0 0 100 100" enable-background="new 0 0 100 100" xml:space="preserve"><path fill="#000000" d="M5.129,85.347c0,0,9.023-15.038,30.976-6.617c8.721,2.707,24.885,9.473,40.9,2.028  c6.645-3.584,9.619-5.021,13.532-10.749c-4.209,6.014-9.021,16.841-28.87,16.841c0,0-10.826,0-26.953-5.752  C26.256,78.43,18.737,76.964,5.129,85.347z"/><path fill="#000000" d="M12.16,92.291c0,0,8.113-12.656,26.708-4.88c7.403,2.539,21.082,8.749,34.992,2.777  c5.783-2.9,8.37-4.057,11.867-8.863c-3.758,5.043-8.158,14.199-25.164,13.693c0,0-9.276-0.275-22.946-5.614  C30.437,86.902,24.032,85.455,12.16,92.291z"/><path fill="#000000" d="M50,4.864C24.167,4.717,19.61,72.527,19.61,72.527s8.056-6.315,26.833,3.729  c6.88,3.884,26.164,6.551,36.088-4.341C82.53,71.915,73.834,5,50,4.864z M69.167,53.098c1.129,2.34,2.243,4.86,3.326,7.588  c-1.943-1.211-4.209-2.809-6.929-4.275L69.167,53.098z M65.563,53.961l-4.152-13.719c2.304,2.953,4.637,6.684,6.913,11.177  L65.563,53.961z M47.833,31.702c3.068-0.585,6.9,1.248,10.953,5.493L49.855,50.23l-9.151-14.492  C42.872,33.909,45.249,32.472,47.833,31.702z M37.725,38.629l-6.947,16.998l-2.62-1.805C30.244,49.258,33.472,43.304,37.725,38.629z   M25.354,60.798c0,0,0.705-2.154,2.059-5.297l3.345,2.302C29.02,58.679,27.224,59.663,25.354,60.798z M32.109,57.139l7.849-19.203  l9.183,14.543C44.296,52.688,38.677,54.015,32.109,57.139z M50.522,52.449l8.808-12.856l4.878,16.122  C60.52,53.899,56.046,52.449,50.522,52.449z"/></svg>